<?xml version="1.0" encoding="utf-8"?>
<!-- Generator: Adobe Illustrator 23.0.1, SVG Export Plug-In . SVG Version: 6.00 Build 0)  -->
<svg version="1.1" id="Layer_1" xmlns="http://www.w3.org/2000/svg" xmlns:xlink="http://www.w3.org/1999/xlink" x="0px" y="0px"
	 viewBox="0 0 634.7 305" style="enable-background:new 0 0 634.7 305;" xml:space="preserve">
<style type="text/css">
	.st0{clip-path:url(#SVGID_2_);}
</style>
<g>
	<defs>
		<rect id="SVGID_1_" width="634.7" height="305"/>
	</defs>
	<clipPath id="SVGID_2_">
		<use xlink:href="#SVGID_1_"  style="overflow:visible;"/>
	</clipPath>
	<path class="st0" d="M153.4,302.5c-82.7,0-149.9-67.3-149.9-150c0-82.7,67.3-150,149.9-150s149.9,67.3,149.9,150
		C303.4,235.2,236.1,302.5,153.4,302.5 M153.4,11.5c-77.6,0-140.7,63.3-140.7,141c0,77.8,63.1,141,140.7,141s140.7-63.3,140.7-141
		C294.1,74.7,231,11.5,153.4,11.5"/>
	<path class="st0" d="M153.4,231.9c-44.5,0-80.7-36.2-80.7-80.7s36.2-80.7,80.7-80.7s80.7,36.2,80.7,80.7S197.9,231.9,153.4,231.9
		 M153.4,79.5c-39.4,0-71.4,32.2-71.4,71.7s32,71.7,71.4,71.7c39.4,0,71.4-32.2,71.4-71.7S192.8,79.5,153.4,79.5"/>
	<path class="st0" d="M247.7,205.8c-2.6-1.7-5.3-3.3-8.2-4.6c9.4-16.8,14-36.4,12.2-57.1c-4.9-54.4-53.2-94.9-107.6-90.3
		c-54.4,4.6-94.7,52.6-89.8,107c4.9,54.4,53.2,94.9,107.6,90.3c20.3-1.7,38.6-9.5,53.3-21.3c3.8,4.1,8.2,7.5,13,10.2
		c5.9,3.3,12.4,7,19.6,6.4c1.4-0.1,2.9-0.4,4.4-0.9c5.7-1.9,11.9-6.9,13.3-14C267.8,219.4,253.7,209.9,247.7,205.8 M63.6,160.2
		c-4.5-49.5,32-93.2,81.4-97.3c49.3-4.2,93.1,32.7,97.6,82.2c4.5,49.5-32,93.2-81.4,97.3C111.8,246.5,68.1,209.6,63.6,160.2
		 M256.4,230.1c-0.6,3.3-4.1,6.1-7.1,7.1c-5.1,1.7-10.3-1.3-16.3-4.8c-4-2.3-7.6-5.2-10.8-8.6c4.7-4.5,8.9-9.5,12.6-14.9
		c2.7,1.2,5.3,2.5,7.7,4.2C246.6,216,257.6,223.5,256.4,230.1"/>
	<path class="st0" d="M153.4,91.5c-34.1,0-61.7,27-61.7,60.3s27.6,60.3,61.7,60.3s61.7-27,61.7-60.3S187.4,91.5,153.4,91.5
		 M147.9,103.4c1.9,0.5,3.2,2.8,4.8,4.3c0,0,0,0,0,0c0,0,0,0,0,0c1.6-1.5,2.9-3.8,4.8-4.3c2.1-0.6,4.7,4.5,3.4,7.3
		c-2,4.2-4.7,8.1-7.5,12.8c-0.2,0.4-0.4,0.8-0.5,1.3c0-0.1-0.1-0.1-0.1-0.2c0,0.1-0.1,0.1-0.1,0.2c-0.2-0.4-0.4-0.8-0.6-1.3
		c-2.9-4.6-5.5-8.6-7.5-12.8C143.2,107.9,145.8,102.8,147.9,103.4 M145,118c2.9,4.4,5.7,8.7,8.3,12.6c2.5-4.2,5.2-8.8,8.3-14.1
		c4.9,11.3-6.9,16-8.3,24.4C145.3,133.3,141.6,123.3,145,118 M140,128.6c4.6,7.6,9.1,15,13,21.4c3.7-7.1,7.9-15.3,12.1-23.5
		c3.9,5.6,3.3,16.4-1.3,21c-3.4,3.4-7.1,6.5-10.4,9.5c-3.9-3.3-8-6.7-11.9-10.2C136.5,142.3,135.8,134.7,140,128.6 M143.7,155.1
		c4.4,3.1,6.7,7.5,7.5,12.7c-2.8-6-7.2-10.2-14.2-11.7c4,4.2,8,8.3,12,12.5c-12.2-5.4-20.8-13.5-20.8-27.7
		C131,148.2,137.9,151,143.7,155.1 M119.7,151.2c1.5,2.2,2.6,3.8,3.7,5.4c4,6.1,9.7,9.3,16.8,10.9c7.4,1.7,11.4,6.3,12.1,14
		c-2.4-5.8-6.8-7.4-11.4-8.7c-4.4-1.3-8.7-2.7-13.3-4.2c2.6,4.8,7,6.9,11.8,8.5c2.9,1,6.1,1.8,8.4,3.5c2.3,1.8,3.8,4.7,5,7.6
		c-4-5.9-10.2-7.2-16.5-8.8C122.4,176.1,115.3,164.1,119.7,151.2 M151.3,203c-4.1-2.5-7.9-5.6-12.2-7.6c-5.1-2.4-10.8-3.6-15.9-5.9
		c-10-4.5-15.9-16.3-13.1-26.7c0.1-0.4,0.5-1.9,1.2-2.7c2.5,12.9,11.6,18,23.1,20.6c6.1,1.4,11.7,4,15.6,9.1
		c1.2,1.5,1.9,3.3,1.9,5.6c-0.9-1-1.7-2.2-2.8-2.9c-4-2.4-7.6-6.2-12.2-6.8c-5.8-0.9-12.9-3.7-18-7.4c2,3.3,2.1,3.9,6.3,7.8
		c3.4,3.2,7.3,2.9,11.8,4.2c6.7,2,12.9,4.3,15.6,11.4c0.2,0.5,0.9,0.8,0.9,2.2C152.9,203.7,152,203.5,151.3,203 M160.4,154.1
		c5.3-5.1,12-9.1,13.7-17.1c2.3,14.7-5.2,24.3-16.9,31.9c3.5-4.9,6.9-9.8,10.4-14.8c-7,2.7-10.8,7.7-12.8,14.3
		C154.7,162.9,156.3,158,160.4,154.1 M166.7,169.7c-6.8,1.9-6.2,2.7-10.1,8.1c-0.1-0.1-0.2-0.1-0.3-0.1c1.3-2.5,2.5-5,4.3-7
		c2.7-3,6.5-5,9.7-7.7c4.9-4.2,9.5-8.6,14-12.7c2.5,4.9,0.9,14.4-5.1,19.6c-4.4,3.8-9.9,6.5-14.9,9.7c-2.8,1.7-5.7,3.4-8.5,5
		c0.1-1.2,0.5-2.3,1.3-3.3c2.9-2.9,4.6-6.2,7.8-7.4c3.5-1.4,7.5-5.1,10.1-7.8C174.7,165.7,170.5,168.4,166.7,169.7 M196.7,172.8
		c-1.8,7.3-7,12-13.5,15.2c-4,2-8.3,3.3-12.5,4.8c-4.4,1.6-8.9,2.9-14.5,4.8c8.4-8.8,21.8-7.3,29-16.6c-10,4.1-19.6,8-29,11.8
		c0.7-3,3.4-5.5,6.8-7.2c4.4-2.2,9-4,13.4-6.1c9-4.3,15.3-10.6,16-22.3C197.5,162.4,198,167.4,196.7,172.8"/>
	<path class="st0" d="M356.4,41.6v25.2c2.2-2.6,4.6-4.5,7.3-5.7c2.7-1.3,5.6-1.9,8.8-1.9c3.6,0,6.8,0.6,9.5,1.7
		c2.7,1.1,4.7,2.7,6.1,4.8c1.4,2.1,2.2,4.1,2.5,6.1c0.3,2,0.4,6.2,0.4,12.6v39.4c0,6.4-0.4,11.2-1.3,14.3c-0.9,3.1-2.9,5.9-6,8.2
		c-3.2,2.3-6.9,3.5-11.3,3.5c-3.1,0-6-0.7-8.7-2c-2.7-1.4-5.2-3.4-7.4-6.1l-1.7,6.6h-24.9V41.6H356.4z M364.5,85.6
		c0-4.5-0.3-7.5-0.9-8.9c-0.6-1.4-1.7-2.1-3.4-2.1c-1.6,0-2.7,0.6-3.2,1.8c-0.5,1.2-0.7,4.2-0.7,9.1v37.7c0,4.7,0.3,7.7,0.8,9
		c0.5,1.3,1.6,2,3.3,2c1.7,0,2.8-0.7,3.3-2c0.5-1.4,0.8-4.6,0.8-9.8V85.6z"/>
	<path class="st0" d="M460.1,106h-34.4v18.9c0,4,0.3,6.5,0.9,7.6c0.6,1.1,1.7,1.7,3.3,1.7c2,0,3.4-0.8,4-2.3c0.7-1.5,1-4.4,1-8.8
		v-11.5h25.2v6.5c0,5.4-0.3,9.5-1,12.4c-0.7,2.9-2.3,6-4.8,9.3c-2.5,3.3-5.7,5.8-9.5,7.4c-3.8,1.6-8.7,2.5-14.5,2.5
		c-5.6,0-10.6-0.8-14.9-2.4c-4.3-1.6-7.6-3.9-10-6.7c-2.4-2.8-4.1-5.9-5-9.3c-0.9-3.4-1.4-8.3-1.4-14.8V91c0-7.6,1-13.7,3.1-18.1
		c2.1-4.4,5.4-7.8,10.1-10.1c4.7-2.3,10.1-3.5,16.2-3.5c7.5,0,13.6,1.4,18.5,4.2c4.8,2.8,8.3,6.6,10.2,11.3c2,4.7,2.9,11.2,2.9,19.7
		V106z M433.4,91.8v-6.4c0-4.5-0.2-7.4-0.7-8.8c-0.5-1.3-1.5-2-3-2c-1.8,0-3,0.6-3.4,1.7c-0.4,1.1-0.7,4.1-0.7,9.1v6.4H433.4z"/>
	<rect x="468.7" y="41.6" class="st0" width="27.4" height="106.6"/>
	<path class="st0" d="M385.6,161v67.3c0,9.1-0.2,15-0.6,17.6c-0.4,2.7-1.9,5.5-4.4,8.4c-2.5,3-6.1,5.2-10.6,6.8
		c-4.5,1.6-10.3,2.3-17.2,2.3c-8.5,0-15.3-1.4-20.4-4.3c-5.1-2.9-7.8-8.5-8-17h25.8c0,3.9,1.4,5.8,4.2,5.8c2,0,3.4-0.6,4-1.8
		c0.7-1.2,1-3.7,1-7.4v-6.6c-2.3,2.1-4.7,3.6-7.2,4.7c-2.5,1.1-5.2,1.6-7.9,1.6c-4.8,0-8.7-1-11.8-2.9c-3.1-1.9-5.2-4.5-6.4-7.6
		c-1.1-3.1-1.7-7.6-1.7-13.4v-31.7c0-8.3,1.5-14.3,4.5-17.9c3-3.6,7.5-5.5,13.6-5.5c3.3,0,6.4,0.7,9.1,2c2.7,1.4,5.2,3.4,7.3,6.1
		l1.9-6.6H385.6z M358.9,184.1c0-4-0.2-6.5-0.7-7.6c-0.5-1.1-1.5-1.6-3.1-1.6c-1.5,0-2.6,0.6-3.3,1.9c-0.6,1.3-1,3.7-1,7.4v29.4
		c0,3.9,0.2,6.4,0.7,7.6c0.5,1.2,1.5,1.7,3,1.7c1.8,0,2.9-0.7,3.4-2.1c0.5-1.4,0.8-4.6,0.8-9.5V184.1z"/>
	<path class="st0" d="M455.9,161v87.4h-27.1l0.5-7.3c-1.8,2.9-4.1,5.2-6.8,6.6c-2.7,1.5-5.8,2.2-9.3,2.2c-4,0-7.3-0.7-9.9-2.1
		c-2.6-1.4-4.6-3.3-5.8-5.6c-1.3-2.3-2-4.8-2.3-7.3c-0.3-2.5-0.5-7.5-0.5-15V161h26.6v59.5c0,6.8,0.2,10.8,0.6,12.1
		c0.4,1.3,1.5,1.9,3.4,1.9c2,0,3.1-0.7,3.5-2c0.4-1.3,0.6-5.6,0.6-12.7V161H455.9z"/>
	<path class="st0" d="M519.8,188.9h-23.6v-4.7c0-4-0.2-6.6-0.7-7.7c-0.5-1.1-1.6-1.6-3.5-1.6c-1.5,0-2.6,0.5-3.4,1.5
		c-0.7,1-1.1,2.5-1.1,4.4c0,2.7,0.2,4.6,0.6,5.9c0.4,1.3,1.5,2.6,3.4,4.1c1.9,1.5,5.7,3.7,11.5,6.5c7.7,3.8,12.8,7.3,15.2,10.7
		c2.4,3.3,3.6,8.2,3.6,14.6c0,7.1-0.9,12.5-2.8,16.1c-1.8,3.6-4.9,6.4-9.2,8.4c-4.3,2-9.5,2.9-15.6,2.9c-6.8,0-12.5-1.1-17.3-3.2
		c-4.8-2.1-8.1-5-9.9-8.6c-1.8-3.6-2.7-9-2.7-16.3v-4.2h23.6v5.5c0,4.7,0.3,7.7,0.9,9.2c0.6,1.4,1.8,2.1,3.5,2.1
		c1.9,0,3.2-0.5,4-1.4c0.7-0.9,1.1-2.9,1.1-6c0-4.2-0.5-6.8-1.4-7.8c-1-1.1-6.2-4.2-15.5-9.3c-7.8-4.4-12.6-8.4-14.3-11.9
		c-1.7-3.6-2.6-7.8-2.6-12.7c0-7,0.9-12.1,2.8-15.4c1.8-3.3,5-5.9,9.4-7.7c4.4-1.8,9.5-2.7,15.4-2.7c5.8,0,10.7,0.7,14.8,2.2
		c4.1,1.5,7.2,3.4,9.3,5.8c2.2,2.4,3.5,4.7,4,6.7c0.5,2.1,0.7,5.3,0.7,9.7V188.9z"/>
	<path class="st0" d="M557,149.3v13.8h7.2v13.8H557v46.7c0,5.8,0.3,9,0.9,9.6c0.6,0.7,3.1,1,7.4,1v14.1h-10.7
		c-6.1,0-10.4-0.3-13-0.8c-2.6-0.5-4.9-1.7-6.8-3.5c-2-1.8-3.2-3.9-3.7-6.3c-0.5-2.3-0.7-7.9-0.7-16.6v-44.4h-5.7v-13.8h5.7v-13.8
		H557z"/>
	<path class="st0" d="M630.2,191.7v21.4c0,7.9-0.4,13.6-1.2,17.3c-0.8,3.7-2.5,7.1-5.1,10.3c-2.6,3.2-5.9,5.5-10,7
		c-4.1,1.5-8.7,2.3-14,2.3c-5.9,0-10.9-0.6-14.9-1.9c-4.1-1.3-7.3-3.2-9.5-5.9c-2.3-2.6-3.9-5.8-4.8-9.5c-1-3.7-1.4-9.3-1.4-16.7
		v-22.4c0-8.1,0.9-14.5,2.6-19c1.8-4.6,4.9-8.2,9.5-11c4.6-2.8,10.4-4.1,17.5-4.1c6,0,11.1,0.9,15.4,2.7c4.3,1.8,7.6,4.1,9.9,6.9
		c2.3,2.9,3.9,5.8,4.8,8.8C629.8,180.9,630.2,185.5,630.2,191.7 M603.6,185.1c0-4.5-0.2-7.3-0.7-8.5c-0.5-1.2-1.5-1.7-3.1-1.7
		c-1.6,0-2.6,0.6-3.2,1.7c-0.5,1.2-0.8,4-0.8,8.5v39.4c0,4.1,0.3,6.8,0.8,8.1c0.5,1.3,1.6,1.9,3.1,1.9c1.6,0,2.6-0.6,3.1-1.7
		c0.5-1.1,0.8-3.6,0.8-7.4V185.1z"/>
</g>
</svg>
