<?xml version="1.0" standalone="no"?><svg xmlns="http://www.w3.org/2000/svg" viewBox="0 0 1440 320"><path fill="#c7ad7f" fill-opacity="5" d="M0,0L20,21.3C40,43,80,85,120,133.3C160,181,200,235,240,213.3C280,192,320,96,360,53.3C400,11,440,21,480,48C520,75,560,117,600,149.3C640,181,680,203,720,192C760,181,800,139,840,133.3C880,128,920,160,960,176C1000,192,1040,192,1080,165.3C1120,139,1160,85,1200,106.7C1240,128,1280,224,1320,266.7C1360,309,1400,299,1420,293.3L1440,288L1440,0L1420,0C1400,0,1360,0,1320,0C1280,0,1240,0,1200,0C1160,0,1120,0,1080,0C1040,0,1000,0,960,0C920,0,880,0,840,0C800,0,760,0,720,0C680,0,640,0,600,0C560,0,520,0,480,0C440,0,400,0,360,0C320,0,280,0,240,0C200,0,160,0,120,0C80,0,40,0,20,0L0,0Z"></path></svg>